
<svg version="1.0" xmlns="http://www.w3.org/2000/svg"
 width="1600.000000pt" height="1600.000000pt" viewBox="0 0 1600.000000 1600.000000"
 preserveAspectRatio="xMidYMid meet">

<g transform="translate(0.000000,1600.000000) scale(0.100000,-0.100000)"
fill="#000000" stroke="none">
<path d="M3500 11875 l0 -1125 500 0 500 0 0 -2250 0 -2250 500 0 500 0 0
-125 0 -125 250 0 250 0 0 -125 0 -125 2000 0 2000 0 0 125 0 125 250 0 250 0
0 125 0 125 500 0 500 0 0 2250 0 2250 500 0 500 0 0 1125 0 1125 -1500 0
-1500 0 0 -125 0 -125 -125 0 -125 0 0 -125 0 -125 -125 0 -125 0 0 -125 0
-125 -125 0 -125 0 0 -125 0 -125 -125 0 -125 0 0 -125 0 -125 -500 0 -500 0
0 125 0 125 -125 0 -125 0 0 125 0 125 -125 0 -125 0 0 125 0 125 -125 0 -125
0 0 125 0 125 -125 0 -125 0 0 125 0 125 -1500 0 -1500 0 0 -1125z m8500 750
l0 -125 -125 0 -125 0 0 -125 0 -125 -125 0 -125 0 0 -125 0 -125 -125 0 -125
0 0 -125 0 -125 -125 0 -125 0 0 -125 0 -125 -125 0 -125 0 0 -125 0 -125
-125 0 -125 0 0 -125 0 -125 -125 0 -125 0 0 -125 0 -125 -125 0 -125 0 0
-125 0 -125 -125 0 -125 0 0 -125 0 -125 -125 0 -125 0 0 -125 0 -125 -125 0
-125 0 0 -125 0 -125 -125 0 -125 0 0 -125 0 -125 -125 0 -125 0 0 -125 0
-125 -125 0 -125 0 0 -125 0 -125 -125 0 -125 0 0 -125 0 -125 -125 0 -125 0
0 -125 0 -125 -125 0 -125 0 0 -125 0 -125 -125 0 -125 0 0 -125 0 -125 -125
0 -125 0 0 -125 0 -125 -125 0 -125 0 0 -125 0 -125 -125 0 -125 0 0 -125 0
-125 -125 0 -125 0 0 -125 0 -125 -125 0 -125 0 0 -125 0 -125 -125 0 -125 0
0 -125 0 -125 -125 0 -125 0 0 -125 0 -125 -125 0 -125 0 0 125 0 125 -375 0
-375 0 0 250 0 250 125 0 125 0 0 125 0 125 125 0 125 0 0 125 0 125 125 0
125 0 0 125 0 125 125 0 125 0 0 125 0 125 125 0 125 0 0 125 0 125 125 0 125
0 0 125 0 125 125 0 125 0 0 125 0 125 125 0 125 0 0 125 0 125 125 0 125 0 0
125 0 125 125 0 125 0 0 125 0 125 125 0 125 0 0 125 0 125 125 0 125 0 0 125
0 125 125 0 125 0 0 125 0 125 125 0 125 0 0 125 0 125 125 0 125 0 0 125 0
125 125 0 125 0 0 125 0 125 125 0 125 0 0 125 0 125 125 0 125 0 0 125 0 125
125 0 125 0 0 125 0 125 125 0 125 0 0 125 0 125 125 0 125 0 0 125 0 125 125
0 125 0 0 125 0 125 125 0 125 0 0 125 0 125 750 0 750 0 0 -125z m-4750 -750
l0 -125 125 0 125 0 0 -125 0 -125 -125 0 -125 0 0 -125 0 -125 -125 0 -125 0
0 -125 0 -125 -125 0 -125 0 0 -125 0 -125 -125 0 -125 0 0 -125 0 -125 -125
0 -125 0 0 -125 0 -125 -125 0 -125 0 0 -125 0 -125 -125 0 -125 0 0 -125 0
-125 -125 0 -125 0 0 -125 0 -125 -125 0 -125 0 0 -125 0 -125 -125 0 -125 0
0 -125 0 -125 -125 0 -125 0 0 375 0 375 125 0 125 0 0 125 0 125 125 0 125 0
0 125 0 125 125 0 125 0 0 125 0 125 125 0 125 0 0 125 0 125 125 0 125 0 0
125 0 125 125 0 125 0 0 125 0 125 125 0 125 0 0 125 0 125 125 0 125 0 0 125
0 125 125 0 125 0 0 125 0 125 125 0 125 0 0 -125z m4000 -2750 l0 -375 -125
0 -125 0 0 -125 0 -125 -125 0 -125 0 0 -125 0 -125 -125 0 -125 0 0 -125 0
-125 -125 0 -125 0 0 -125 0 -125 -125 0 -125 0 0 -125 0 -125 -125 0 -125 0
0 -125 0 -125 -125 0 -125 0 0 -125 0 -125 -125 0 -125 0 0 -125 0 -125 -125
0 -125 0 0 -125 0 -125 -125 0 -125 0 0 -125 0 -125 -125 0 -125 0 0 -125 0
-125 -375 0 -375 0 0 125 0 125 125 0 125 0 0 125 0 125 125 0 125 0 0 125 0
125 125 0 125 0 0 125 0 125 125 0 125 0 0 125 0 125 125 0 125 0 0 125 0 125
125 0 125 0 0 125 0 125 125 0 125 0 0 125 0 125 125 0 125 0 0 125 0 125 125
0 125 0 0 125 0 125 125 0 125 0 0 125 0 125 125 0 125 0 0 125 0 125 125 0
125 0 0 125 0 125 125 0 125 0 0 125 0 125 125 0 125 0 0 -375z"/>
</g>
</svg>
