
<svg version="1.0" xmlns="http://www.w3.org/2000/svg"
 width="1600.000000pt" height="1600.000000pt" viewBox="0 0 1600.000000 1600.000000"
 preserveAspectRatio="xMidYMid meet">

<g transform="translate(0.000000,1600.000000) scale(0.100000,-0.100000)"
fill="#000000" stroke="none">
<path d="M10500 12625 l0 -125 -125 0 -125 0 0 -125 0 -125 -125 0 -125 0 0
-125 0 -125 -125 0 -125 0 0 -125 0 -125 -125 0 -125 0 0 -125 0 -125 -125 0
-125 0 0 -125 0 -125 -125 0 -125 0 0 -125 0 -125 -125 0 -125 0 0 -125 0
-125 -125 0 -125 0 0 -125 0 -125 -125 0 -125 0 0 -125 0 -125 -125 0 -125 0
0 -125 0 -125 -125 0 -125 0 0 -125 0 -125 -125 0 -125 0 0 -125 0 -125 -125
0 -125 0 0 -125 0 -125 -125 0 -125 0 0 -125 0 -125 -125 0 -125 0 0 -125 0
-125 -125 0 -125 0 0 -125 0 -125 -125 0 -125 0 0 -125 0 -125 -125 0 -125 0
0 -125 0 -125 -125 0 -125 0 0 -125 0 -125 -125 0 -125 0 0 -125 0 -125 -125
0 -125 0 0 -125 0 -125 -125 0 -125 0 0 -125 0 -125 -125 0 -125 0 0 -250 0
-250 375 0 375 0 0 -125 0 -125 125 0 125 0 0 125 0 125 125 0 125 0 0 125 0
125 125 0 125 0 0 125 0 125 125 0 125 0 0 125 0 125 125 0 125 0 0 125 0 125
125 0 125 0 0 125 0 125 125 0 125 0 0 125 0 125 125 0 125 0 0 125 0 125 125
0 125 0 0 125 0 125 125 0 125 0 0 125 0 125 125 0 125 0 0 125 0 125 125 0
125 0 0 125 0 125 125 0 125 0 0 125 0 125 125 0 125 0 0 125 0 125 125 0 125
0 0 125 0 125 125 0 125 0 0 125 0 125 125 0 125 0 0 125 0 125 125 0 125 0 0
125 0 125 125 0 125 0 0 125 0 125 125 0 125 0 0 125 0 125 125 0 125 0 0 125
0 125 125 0 125 0 0 125 0 125 125 0 125 0 0 125 0 125 125 0 125 0 0 125 0
125 125 0 125 0 0 125 0 125 125 0 125 0 0 125 0 125 -750 0 -750 0 0 -125z"/>
<path d="M7000 11875 l0 -125 -125 0 -125 0 0 -125 0 -125 -125 0 -125 0 0
-125 0 -125 -125 0 -125 0 0 -125 0 -125 -125 0 -125 0 0 -125 0 -125 -125 0
-125 0 0 -125 0 -125 -125 0 -125 0 0 -125 0 -125 -125 0 -125 0 0 -125 0
-125 -125 0 -125 0 0 -125 0 -125 -125 0 -125 0 0 -375 0 -375 125 0 125 0 0
125 0 125 125 0 125 0 0 125 0 125 125 0 125 0 0 125 0 125 125 0 125 0 0 125
0 125 125 0 125 0 0 125 0 125 125 0 125 0 0 125 0 125 125 0 125 0 0 125 0
125 125 0 125 0 0 125 0 125 125 0 125 0 0 125 0 125 125 0 125 0 0 125 0 125
125 0 125 0 0 125 0 125 -125 0 -125 0 0 125 0 125 -125 0 -125 0 0 -125z"/>
<path d="M11000 9375 l0 -125 -125 0 -125 0 0 -125 0 -125 -125 0 -125 0 0
-125 0 -125 -125 0 -125 0 0 -125 0 -125 -125 0 -125 0 0 -125 0 -125 -125 0
-125 0 0 -125 0 -125 -125 0 -125 0 0 -125 0 -125 -125 0 -125 0 0 -125 0
-125 -125 0 -125 0 0 -125 0 -125 -125 0 -125 0 0 -125 0 -125 -125 0 -125 0
0 -125 0 -125 -125 0 -125 0 0 -125 0 -125 -125 0 -125 0 0 -125 0 -125 -125
0 -125 0 0 -125 0 -125 375 0 375 0 0 125 0 125 125 0 125 0 0 125 0 125 125
0 125 0 0 125 0 125 125 0 125 0 0 125 0 125 125 0 125 0 0 125 0 125 125 0
125 0 0 125 0 125 125 0 125 0 0 125 0 125 125 0 125 0 0 125 0 125 125 0 125
0 0 125 0 125 125 0 125 0 0 125 0 125 125 0 125 0 0 125 0 125 125 0 125 0 0
375 0 375 -125 0 -125 0 0 -125z"/>
</g>
</svg>
