<?xml version="1.0" standalone="no"?>
<!DOCTYPE svg PUBLIC "-//W3C//DTD SVG 20010904//EN"
 "http://www.w3.org/TR/2001/REC-SVG-20010904/DTD/svg10.dtd">
<svg version="1.0" xmlns="http://www.w3.org/2000/svg"
 width="1600.000000pt" height="1600.000000pt" viewBox="0 0 1600.000000 1600.000000"
 preserveAspectRatio="xMidYMid meet">

<g transform="translate(0.000000,1600.000000) scale(0.100000,-0.100000)"
fill="#000000" stroke="none">
<path d="M3500 11875 l0 -1125 500 0 500 0 0 -2250 0 -2250 500 0 500 0 0
-125 0 -125 250 0 250 0 0 -125 0 -125 2000 0 2000 0 0 125 0 125 250 0 250 0
0 125 0 125 500 0 500 0 0 2250 0 2250 500 0 500 0 0 1125 0 1125 -1500 0
-1500 0 0 -125 0 -125 -125 0 -125 0 0 -125 0 -125 -125 0 -125 0 0 -125 0
-125 -125 0 -125 0 0 -125 0 -125 -125 0 -125 0 0 -125 0 -125 -500 0 -500 0
0 125 0 125 -125 0 -125 0 0 125 0 125 -125 0 -125 0 0 125 0 125 -125 0 -125
0 0 125 0 125 -125 0 -125 0 0 125 0 125 -1500 0 -1500 0 0 -1125z m3000 750
l0 -125 125 0 125 0 0 -125 0 -125 125 0 125 0 0 -125 0 -125 125 0 125 0 0
-125 0 -125 125 0 125 0 0 -125 0 -125 125 0 125 0 0 -2750 0 -2750 -875 0
-875 0 0 125 0 125 -250 0 -250 0 0 125 0 125 -375 0 -375 0 0 2250 0 2250
-500 0 -500 0 0 875 0 875 1375 0 1375 0 0 -125z m5750 -750 l0 -875 -500 0
-500 0 0 -2250 0 -2250 -375 0 -375 0 0 -125 0 -125 -250 0 -250 0 0 -125 0
-125 -875 0 -875 0 0 2750 0 2750 125 0 125 0 0 125 0 125 125 0 125 0 0 125
0 125 125 0 125 0 0 125 0 125 125 0 125 0 0 125 0 125 125 0 125 0 0 125 0
125 1375 0 1375 0 0 -875z"/>
</g>
</svg>
