
<svg version="1.0" xmlns="http://www.w3.org/2000/svg"
 width="1600.000000pt" height="1600.000000pt" viewBox="0 0 1600.000000 1600.000000"
 preserveAspectRatio="xMidYMid meet">

<g transform="translate(0.000000,1600.000000) scale(0.100000,-0.100000)"
fill="#000000" stroke="none">
<path d="M3500 11875 l0 -1125 500 0 500 0 0 -2250 0 -2250 500 0 500 0 0
-125 0 -125 250 0 250 0 0 -125 0 -125 2000 0 2000 0 0 125 0 125 250 0 250 0
0 125 0 125 500 0 500 0 0 2250 0 2250 500 0 500 0 0 1125 0 1125 -1500 0
-1500 0 0 -125 0 -125 -125 0 -125 0 0 -125 0 -125 -125 0 -125 0 0 -125 0
-125 -125 0 -125 0 0 -125 0 -125 -125 0 -125 0 0 -125 0 -125 -500 0 -500 0
0 125 0 125 -125 0 -125 0 0 125 0 125 -125 0 -125 0 0 125 0 125 -125 0 -125
0 0 125 0 125 -125 0 -125 0 0 125 0 125 -1500 0 -1500 0 0 -1125z m3000 750
l0 -125 125 0 125 0 0 -125 0 -125 125 0 125 0 0 -125 0 -125 125 0 125 0 0
-125 0 -125 125 0 125 0 0 -125 0 -125 500 0 500 0 0 125 0 125 125 0 125 0 0
125 0 125 125 0 125 0 0 125 0 125 125 0 125 0 0 125 0 125 125 0 125 0 0 125
0 125 375 0 375 0 0 -125 0 -125 125 0 125 0 0 125 0 125 750 0 750 0 0 -125
0 -125 125 0 125 0 0 -750 0 -750 -500 0 -500 0 0 -625 0 -625 -125 0 -125 0
0 -125 0 -125 125 0 125 0 0 -375 0 -375 -125 0 -125 0 0 -125 0 -125 125 0
125 0 0 -1000 0 -1000 -375 0 -375 0 0 -125 0 -125 -250 0 -250 0 0 -125 0
-125 -625 0 -625 0 0 125 0 125 -125 0 -125 0 0 -125 0 -125 -375 0 -375 0 0
125 0 125 -125 0 -125 0 0 -125 0 -125 -750 0 -750 0 0 250 0 250 -125 0 -125
0 0 -125 0 -125 -125 0 -125 0 0 125 0 125 -375 0 -375 0 0 250 0 250 125 0
125 0 0 125 0 125 -125 0 -125 0 0 750 0 750 125 0 125 0 0 125 0 125 -125 0
-125 0 0 375 0 375 125 0 125 0 0 125 0 125 -125 0 -125 0 0 500 0 500 -500 0
-500 0 0 875 0 875 1375 0 1375 0 0 -125z"/>
<path d="M10000 12375 l0 -125 -125 0 -125 0 0 -125 0 -125 -125 0 -125 0 0
-125 0 -125 -125 0 -125 0 0 -125 0 -125 -125 0 -125 0 0 -125 0 -125 -125 0
-125 0 0 -125 0 -125 -125 0 -125 0 0 -125 0 -125 -125 0 -125 0 0 -125 0
-125 -125 0 -125 0 0 -125 0 -125 -125 0 -125 0 0 -125 0 -125 -125 0 -125 0
0 -125 0 -125 -125 0 -125 0 0 -125 0 -125 -125 0 -125 0 0 -125 0 -125 -125
0 -125 0 0 -125 0 -125 -125 0 -125 0 0 -125 0 -125 -125 0 -125 0 0 -125 0
-125 -125 0 -125 0 0 -125 0 -125 -125 0 -125 0 0 -125 0 -125 -125 0 -125 0
0 -125 0 -125 -125 0 -125 0 0 -125 0 -125 -125 0 -125 0 0 -125 0 -125 125 0
125 0 0 125 0 125 125 0 125 0 0 125 0 125 125 0 125 0 0 125 0 125 125 0 125
0 0 125 0 125 125 0 125 0 0 125 0 125 125 0 125 0 0 125 0 125 125 0 125 0 0
125 0 125 125 0 125 0 0 125 0 125 125 0 125 0 0 125 0 125 125 0 125 0 0 125
0 125 125 0 125 0 0 125 0 125 125 0 125 0 0 125 0 125 125 0 125 0 0 125 0
125 125 0 125 0 0 125 0 125 125 0 125 0 0 125 0 125 125 0 125 0 0 125 0 125
125 0 125 0 0 125 0 125 125 0 125 0 0 125 0 125 125 0 125 0 0 125 0 125 125
0 125 0 0 125 0 125 125 0 125 0 0 125 0 125 -125 0 -125 0 0 -125z"/>
<path d="M11750 12375 l0 -125 -125 0 -125 0 0 -125 0 -125 -125 0 -125 0 0
-125 0 -125 -125 0 -125 0 0 -125 0 -125 -125 0 -125 0 0 -125 0 -125 -125 0
-125 0 0 -125 0 -125 -125 0 -125 0 0 -125 0 -125 -125 0 -125 0 0 -125 0
-125 -125 0 -125 0 0 -125 0 -125 -125 0 -125 0 0 -125 0 -125 -125 0 -125 0
0 -125 0 -125 -125 0 -125 0 0 -125 0 -125 -125 0 -125 0 0 -125 0 -125 -125
0 -125 0 0 -125 0 -125 -125 0 -125 0 0 -125 0 -125 -125 0 -125 0 0 -125 0
-125 -125 0 -125 0 0 -125 0 -125 -125 0 -125 0 0 -125 0 -125 -125 0 -125 0
0 -125 0 -125 -125 0 -125 0 0 -125 0 -125 -125 0 -125 0 0 -125 0 -125 -125
0 -125 0 0 -125 0 -125 -125 0 -125 0 0 -125 0 -125 -125 0 -125 0 0 -125 0
-125 125 0 125 0 0 125 0 125 125 0 125 0 0 125 0 125 125 0 125 0 0 125 0
125 125 0 125 0 0 125 0 125 125 0 125 0 0 125 0 125 125 0 125 0 0 125 0 125
125 0 125 0 0 125 0 125 125 0 125 0 0 125 0 125 125 0 125 0 0 125 0 125 125
0 125 0 0 125 0 125 125 0 125 0 0 125 0 125 125 0 125 0 0 125 0 125 125 0
125 0 0 125 0 125 125 0 125 0 0 125 0 125 125 0 125 0 0 125 0 125 125 0 125
0 0 125 0 125 125 0 125 0 0 125 0 125 125 0 125 0 0 125 0 125 125 0 125 0 0
125 0 125 125 0 125 0 0 125 0 125 125 0 125 0 0 125 0 125 125 0 125 0 0 125
0 125 125 0 125 0 0 125 0 125 125 0 125 0 0 125 0 125 -125 0 -125 0 0 -125z"/>
<path d="M6750 11875 l0 -125 -125 0 -125 0 0 -125 0 -125 -125 0 -125 0 0
-125 0 -125 -125 0 -125 0 0 -125 0 -125 -125 0 -125 0 0 -125 0 -125 -125 0
-125 0 0 -125 0 -125 -125 0 -125 0 0 -125 0 -125 -125 0 -125 0 0 -125 0
-125 125 0 125 0 0 125 0 125 125 0 125 0 0 125 0 125 125 0 125 0 0 125 0
125 125 0 125 0 0 125 0 125 125 0 125 0 0 125 0 125 125 0 125 0 0 125 0 125
125 0 125 0 0 125 0 125 125 0 125 0 0 125 0 125 -125 0 -125 0 0 -125z"/>
<path d="M7250 11375 l0 -125 -125 0 -125 0 0 -125 0 -125 -125 0 -125 0 0
-125 0 -125 -125 0 -125 0 0 -125 0 -125 -125 0 -125 0 0 -125 0 -125 -125 0
-125 0 0 -125 0 -125 -125 0 -125 0 0 -125 0 -125 -125 0 -125 0 0 -125 0
-125 -125 0 -125 0 0 -125 0 -125 -125 0 -125 0 0 -125 0 -125 125 0 125 0 0
125 0 125 125 0 125 0 0 125 0 125 125 0 125 0 0 125 0 125 125 0 125 0 0 125
0 125 125 0 125 0 0 125 0 125 125 0 125 0 0 125 0 125 125 0 125 0 0 125 0
125 125 0 125 0 0 125 0 125 125 0 125 0 0 125 0 125 125 0 125 0 0 125 0 125
-125 0 -125 0 0 -125z"/>
<path d="M10750 9375 l0 -125 -125 0 -125 0 0 -125 0 -125 -125 0 -125 0 0
-125 0 -125 -125 0 -125 0 0 -125 0 -125 -125 0 -125 0 0 -125 0 -125 -125 0
-125 0 0 -125 0 -125 -125 0 -125 0 0 -125 0 -125 -125 0 -125 0 0 -125 0
-125 -125 0 -125 0 0 -125 0 -125 -125 0 -125 0 0 -125 0 -125 -125 0 -125 0
0 -125 0 -125 -125 0 -125 0 0 -125 0 -125 -125 0 -125 0 0 -125 0 -125 125 0
125 0 0 125 0 125 125 0 125 0 0 125 0 125 125 0 125 0 0 125 0 125 125 0 125
0 0 125 0 125 125 0 125 0 0 125 0 125 125 0 125 0 0 125 0 125 125 0 125 0 0
125 0 125 125 0 125 0 0 125 0 125 125 0 125 0 0 125 0 125 125 0 125 0 0 125
0 125 125 0 125 0 0 125 0 125 125 0 125 0 0 125 0 125 125 0 125 0 0 125 0
125 -125 0 -125 0 0 -125z"/>
<path d="M10750 8375 l0 -125 -125 0 -125 0 0 -125 0 -125 -125 0 -125 0 0
-125 0 -125 -125 0 -125 0 0 -125 0 -125 -125 0 -125 0 0 -125 0 -125 -125 0
-125 0 0 -125 0 -125 -125 0 -125 0 0 -125 0 -125 -125 0 -125 0 0 -125 0
-125 -125 0 -125 0 0 -125 0 -125 125 0 125 0 0 125 0 125 125 0 125 0 0 125
0 125 125 0 125 0 0 125 0 125 125 0 125 0 0 125 0 125 125 0 125 0 0 125 0
125 125 0 125 0 0 125 0 125 125 0 125 0 0 125 0 125 125 0 125 0 0 125 0 125
125 0 125 0 0 125 0 125 -125 0 -125 0 0 -125z"/>
</g>
</svg>
